<svg xmlns="http://www.w3.org/2000/svg" viewBox="0 0 64 64">
  <defs>
    <linearGradient id="g" x1="0%" x2="100%" y1="0%" y2="100%">
      <stop offset="0%" stop-color="#0f5b54"/>
      <stop offset="100%" stop-color="#83643b"/>
    </linearGradient>
  </defs>
  <rect width="64" height="64" rx="18" fill="#f7f1e8"/>
  <path d="M32 14c4 5 6 10 6 16 0 9-4 15-4 20h-4c0-5-4-11-4-20 0-6 2-11 6-16Z" fill="url(#g)"/>
  <path d="M31 18c-8 1-13 4-17 10 7-2 13-2 18 1l-1-11Z" fill="#0f5b54"/>
  <path d="M33 18c8 1 13 4 17 10-7-2-13-2-18 1l1-11Z" fill="#0f5b54"/>
  <path d="M31 24c-7 0-12 2-16 7 7-1 12 0 17 4l-1-11Z" fill="#83643b"/>
  <path d="M33 24c7 0 12 2 16 7-7-1-12 0-17 4l1-11Z" fill="#83643b"/>
</svg>
